<svg width="94" height="111" viewBox="0 0 94 111" fill="none" xmlns="http://www.w3.org/2000/svg">
<path d="M67.5068 83.0664C70.0005 80.5764 74.0371 80.5829 76.5228 83.0809C79.0085 85.579 79.002 89.6226 76.5083 92.1127L65.4351 103.17C55.2192 113.371 38.5605 113.519 28.1723 103.513C28.1122 103.456 23.4866 98.9201 8.22703 83.957C-1.92478 74.0029 -2.93615 58.0749 6.61698 47.8464L24.4287 28.7745C33.91 18.6219 51.3874 17.5122 62.228 26.2789L78.4053 39.362C81.1449 41.5776 81.5728 45.5985 79.3611 48.3429C77.1493 51.0873 73.1355 51.5159 70.3959 49.3003L54.2187 36.2173C48.5493 31.6325 38.6319 32.2622 33.7399 37.5006L15.9279 56.5727C11.2772 61.5522 11.7866 69.574 17.1461 74.8292C28.3515 85.8169 36.9874 94.2846 36.9974 94.2942C42.3982 99.496 51.1309 99.4184 56.4336 94.1234L67.5068 83.0664Z" fill="#FFA116"/>
<path fill-rule="evenodd" clip-rule="evenodd" d="M40.607 72.0014C37.086 72.0014 34.2317 69.1421 34.2317 65.615C34.2317 62.0879 37.086 59.2286 40.607 59.2286H87.6247C91.1457 59.2286 94 62.0879 94 65.615C94 69.1421 91.1457 72.0014 87.6247 72.0014H40.607Z" fill="#B3B3B3"/>
<path fill-rule="evenodd" clip-rule="evenodd" d="M49.4124 2.02335C51.8179 -0.55232 55.8523 -0.686894 58.4234 1.72277C60.9946 4.13244 61.129 8.17385 58.7235 10.7495L15.9282 56.5729C11.2774 61.552 11.7867 69.5738 17.1459 74.8292L36.9094 94.2091C39.4255 96.6764 39.4686 100.72 37.0056 103.24C34.5426 105.761 30.5063 105.804 27.9901 103.337L8.22654 83.9567C-1.92468 74.0021 -2.93604 58.0741 6.61751 47.8463L49.4124 2.02335Z" fill="black"/>
</svg>
