<?xml version="1.0" encoding="iso-8859-1"?>
<!-- Generator: Adobe Illustrator 19.0.0, SVG Export Plug-In . SVG Version: 6.00 Build 0)  -->
<svg version="1.1" id="Layer_1" xmlns="http://www.w3.org/2000/svg" xmlns:xlink="http://www.w3.org/1999/xlink" x="0px" y="0px"
	 viewBox="0 0 511.597 511.597" style="enable-background:new 0 0 511.597 511.597;" xml:space="preserve">
<path style="fill:#8CC153;" d="M271.254,0c0,0-52.162,22.623-59.687,85.417c-6.23,51.835,42.17,60.609,42.17,60.609
	s49.087,2.935,55.315-48.915C316.578,34.317,271.27,0,271.254,0z"/>
<g>
	<path style="fill:#A0D468;" d="M252.535,166.713c-0.421,0-0.843-0.016-1.28-0.078c-5.839-0.687-10.008-5.995-9.305-11.85
		l9.664-80.516c0.703-5.839,6.011-10.008,11.849-9.305c5.84,0.702,10.008,6.011,9.307,11.85l-9.665,80.516
		C262.465,162.748,257.859,166.713,252.535,166.713z"/>
	<path style="fill:#A0D468;" d="M389.053,471.631c0-0.016-22.623-52.162-85.418-59.703c-51.833-6.214-60.608,42.17-60.608,42.17
		s-2.935,49.103,48.915,55.316C354.721,516.955,389.053,471.631,389.053,471.631z"/>
</g>
<g>
	<path style="fill:#8CC153;" d="M313.518,473.224c-0.421,0-0.842-0.031-1.279-0.078l-82.779-9.93
		c-5.839-0.702-10.008-6.011-9.305-11.865c0.703-5.84,6.011-10.008,11.85-9.306l82.779,9.93c5.839,0.702,10.008,6.011,9.305,11.866
		C323.433,469.242,318.842,473.224,313.518,473.224z"/>
	<path style="fill:#8CC153;" d="M263.323,374.879l-75.363,75.362c-24.965,24.965-65.449,24.965-90.429,0
		c-24.965-24.98-24.965-65.464,0-90.429c0.016-0.016,0.016-0.016,0.016-0.031l90.414-90.414c24.98-24.965,65.465-24.965,90.445,0
		c16.722,16.737,22.232,40.438,16.534,61.765c10.507-2.795,20.437-8.307,28.68-16.534l15.066-15.082
		c-3.122-22.061-13.177-43.325-30.148-60.281c-41.607-41.624-109.085-41.624-150.709,0L67.4,329.665
		c-41.624,41.624-41.624,109.103,0,150.726c41.608,41.608,109.087,41.608,150.71,0l90.428-90.444
		c7.885-7.869,14.271-16.675,19.158-26.058C307.727,374.317,285.135,377.986,263.323,374.879z"/>
</g>
<path style="fill:#A0D468;" d="M444.197,103.575c-41.623-41.608-109.102-41.608-150.727,0l-90.428,90.445
	c-7.884,7.869-14.27,16.674-19.157,26.058c19.969-10.429,42.561-14.098,64.372-10.992l75.362-75.362
	c24.965-24.965,65.449-24.965,90.43,0c24.965,24.98,24.965,65.464,0,90.429c0,0.016-0.016,0.016-0.016,0.016l-90.414,90.43
	c-24.98,24.965-65.464,24.965-90.428,0c-16.737-16.737-22.248-40.438-16.55-61.765c-10.507,2.795-20.437,8.307-28.681,16.534
	l-15.066,15.082c3.138,22.061,13.177,43.326,30.148,60.281c41.624,41.624,109.102,41.624,150.725,0l90.43-90.43
	C485.821,212.677,485.821,145.199,444.197,103.575z"/>
<g>
</g>
<g>
</g>
<g>
</g>
<g>
</g>
<g>
</g>
<g>
</g>
<g>
</g>
<g>
</g>
<g>
</g>
<g>
</g>
<g>
</g>
<g>
</g>
<g>
</g>
<g>
</g>
<g>
</g>
</svg>
