<svg width="21" height="20" viewBox="0 0 21 20" fill="none" xmlns="http://www.w3.org/2000/svg">
<path d="M10 20C8.68642 20.0013 7.38546 19.7436 6.17162 19.2415C4.95777 18.7394 3.85485 18.0028 2.926 17.074C1.99716 16.1451 1.26061 15.0422 0.75853 13.8284C0.256449 12.6145 -0.00131055 11.3136 5.01048e-06 10V9.8C0.0400133 7.83941 0.655299 5.9338 1.76939 4.32002C2.88348 2.70623 4.44726 1.45543 6.26636 0.723055C8.08547 -0.00931638 10.0797 -0.19096 12.0012 0.2007C13.9227 0.592359 15.6867 1.54005 17.074 2.926C18.4737 4.32454 19.4271 6.1069 19.8134 8.04748C20.1997 9.98806 20.0017 11.9996 19.2443 13.8276C18.487 15.6556 17.2043 17.2178 15.5588 18.3166C13.9132 19.4153 11.9787 20.0012 10 20V20ZM10 11.41L12.59 14L14 12.59L11.41 10L14 7.41L12.59 6L10 8.59L7.41001 6L6.00001 7.41L8.59 10L6.00001 12.59L7.41001 14L10 11.411V11.41Z" fill="#FF3D71"/>
</svg>
